<svg width="122" height="24" viewBox="0 0 122 24" fill="none" xmlns="http://www.w3.org/2000/svg">
<g clip-path="url(#clip0_6_710)">
<path d="M25.5289 6.11221V16.885C25.5196 18.7689 24.756 20.5732 23.404 21.9055C22.052 23.2378 20.2209 23.9905 18.3087 24C16.0559 24 14.2121 23.1502 12.7774 21.4507C11.3265 23.1512 9.47405 24.001 7.22017 24C5.30797 23.9905 3.47686 23.2378 2.12485 21.9055C0.772851 20.5732 0.00923877 18.7689 0 16.885V6.11221H3.37929V16.885C3.38131 17.888 3.78662 18.8493 4.50649 19.5586C5.22636 20.2678 6.20213 20.6671 7.22017 20.6691C7.72336 20.6775 8.2231 20.5858 8.6895 20.3995C9.15589 20.2132 9.57937 19.9361 9.93461 19.5849C10.2983 19.2376 10.5877 18.822 10.7856 18.3627C10.9835 17.9033 11.086 17.4096 11.087 16.9106V6.11221H14.4678V16.9106C14.4602 17.4085 14.5561 17.9027 14.7499 18.3627C14.9436 18.8227 15.231 19.2386 15.5943 19.5849C15.9495 19.9361 16.373 20.2132 16.8394 20.3995C17.3058 20.5858 17.8055 20.6775 18.3087 20.6691C19.327 20.6679 20.3032 20.2689 21.0233 19.5595C21.7433 18.85 22.1484 17.8882 22.1496 16.885V6.11221H25.5289Z" fill="white"/>
<path d="M38.2452 16.7253C38.6076 17.8506 39.3144 18.8379 40.2688 19.5518C41.2482 20.2823 42.4457 20.6725 43.674 20.6616C44.7194 20.6529 45.7504 20.4207 46.6957 19.981C47.7554 19.5091 48.5323 18.9118 49.0265 18.189L51.8174 20.0562C51.0104 21.2338 49.8427 22.184 48.3143 22.9068C46.8732 23.6119 45.2876 23.9833 43.6786 23.9925C42.4822 24.0109 41.2946 23.7875 40.1892 23.336C39.0838 22.8846 38.0841 22.2148 37.2517 21.3678C35.4757 19.6201 34.5882 17.5179 34.5892 15.0614C34.5913 12.6883 35.5491 10.4129 37.2524 8.73504C38.9558 7.05713 41.2654 6.11381 43.674 6.11221C46.1674 6.11221 48.3015 6.9866 50.0765 8.73538C50.9361 9.55454 51.6165 10.5384 52.0757 11.6263C52.5349 12.7142 52.7632 13.8833 52.7466 15.0614C52.7473 15.6115 52.6961 16.1605 52.5938 16.7013L38.2452 16.7253ZM43.674 9.43559C42.4456 9.42398 41.2479 9.8143 40.2688 10.5454C39.3095 11.2649 38.6021 12.2614 38.2452 13.3959H49.0785C48.7221 12.2615 48.0152 11.265 47.0564 10.5454C46.0849 9.8165 44.8952 9.42614 43.674 9.43559Z" fill="white"/>
<path d="M61.564 23.9925V15.0614C61.5451 13.8825 61.7716 12.7123 62.2295 11.623C62.6874 10.5337 63.367 9.54836 64.2264 8.72785C66.0024 6.98409 68.1366 6.11221 70.6289 6.11221C73.04 6.11221 75.3523 7.05586 77.0571 8.73557C78.762 10.4153 79.7198 12.6935 79.7198 15.0689V24H76.339V15.0614C76.339 13.5725 75.7387 12.1446 74.6701 11.0919C73.6016 10.0391 72.1523 9.44764 70.6411 9.44764C69.13 9.44764 67.6807 10.0391 66.6121 11.0919C65.5436 12.1446 64.9432 13.5725 64.9432 15.0614V23.9925H61.564Z" fill="white"/>
<path d="M88.5433 0H91.9226V3.22851H88.5433V0ZM88.5433 6.10467H91.9226V23.9925H88.5433V6.10467Z" fill="white"/>
<path d="M122 6.11221L114.318 22.3271C113.809 23.4364 112.929 23.9915 111.68 23.9925C110.431 23.9935 109.544 23.4384 109.018 22.3271L101.336 6.11221H105.075L111.246 19.1302C111.284 19.2127 111.345 19.2827 111.422 19.3319C111.499 19.381 111.589 19.4071 111.681 19.4071C111.773 19.4071 111.863 19.381 111.94 19.3319C112.017 19.2827 112.078 19.2127 112.116 19.1302L118.288 6.11221H122Z" fill="white"/>
</g>
<defs>
<clipPath id="clip0_6_710">
<rect width="122" height="24" fill="white"/>
</clipPath>
</defs>
</svg>
