<svg width="16" height="17" viewBox="0 0 16 17" fill="none" xmlns="http://www.w3.org/2000/svg">
<path fill-rule="evenodd" clip-rule="evenodd" d="M8 2.5C8.43222 2.5 8.78261 2.85039 8.78261 3.28261V7.71739H13.2174C13.6496 7.71739 14 8.06778 14 8.5C14 8.93222 13.6496 9.28261 13.2174 9.28261H8.78261V13.7174C8.78261 14.1496 8.43222 14.5 8 14.5C7.56778 14.5 7.21739 14.1496 7.21739 13.7174V9.28261H2.78261C2.35039 9.28261 2 8.93222 2 8.5C2 8.06778 2.35039 7.71739 2.78261 7.71739H7.21739V3.28261C7.21739 2.85039 7.56778 2.5 8 2.5Z" fill="#02A9EE"/>
</svg>
