<svg width="120" height="34" viewBox="0 0 120 34" fill="none" xmlns="http://www.w3.org/2000/svg">
<path d="M30.2138 7.74207C30.7064 7.74207 31.1789 7.94061 31.5272 8.29401C31.8755 8.64741 32.0712 9.12671 32.0712 9.62649V19.9373C32.0731 21.5909 31.5729 23.2049 30.6387 24.5599C29.7045 25.9149 28.3816 26.9451 26.8499 27.5104C25.3183 28.0756 23.6522 28.1485 22.0782 27.7191C20.5043 27.2897 19.0989 26.3789 18.0532 25.1105C17.003 26.3749 15.5959 27.282 14.0215 27.7093C12.4472 28.1366 10.7816 28.0636 9.24944 27.5001C7.71731 26.9367 6.39245 25.9098 5.45373 24.5582C4.515 23.2067 4.0076 21.5954 4 19.942V9.62649C4.00062 9.12649 4.19683 8.64719 4.54553 8.29386C4.89422 7.94054 5.36688 7.74207 5.8597 7.74207V7.74207C6.35231 7.74207 6.82473 7.94061 7.17306 8.29401C7.52138 8.64741 7.71707 9.12671 7.71707 9.62649V19.8826C7.70026 20.8839 8.03201 21.8591 8.65395 22.6368C9.20391 23.3239 9.94942 23.8221 10.7888 24.0635C11.6281 24.3049 12.5205 24.2777 13.344 23.9856C14.1676 23.6934 14.8822 23.1507 15.3905 22.4313C15.8988 21.7119 16.1759 20.8509 16.1841 19.9658V9.62649C16.1841 9.12671 16.3798 8.64741 16.7281 8.29401C17.0764 7.94061 17.5489 7.74207 18.0415 7.74207V7.74207C18.2856 7.74175 18.5273 7.79027 18.753 7.88483C18.9786 7.97939 19.1836 8.11815 19.3563 8.29317C19.529 8.46818 19.6661 8.67601 19.7596 8.90479C19.853 9.13358 19.9012 9.37883 19.9012 9.62649V19.9658C19.8927 20.5295 19.9983 21.0891 20.2114 21.6098C20.4245 22.1305 20.7406 22.6014 21.1402 22.9932C21.5622 23.411 22.0652 23.7351 22.6173 23.9452C23.1695 24.1552 23.7586 24.2464 24.3473 24.2131C24.936 24.1798 25.5115 24.0227 26.0371 23.7517C26.5628 23.4808 27.0272 23.1019 27.4009 22.6391C28.0233 21.8618 28.3552 20.8864 28.3377 19.885V9.62649C28.3377 9.12671 28.5334 8.64741 28.8818 8.29401C29.2301 7.94061 29.7025 7.74207 30.1951 7.74207H30.2138Z" fill="#2E2525"/>
<path d="M60.5195 26.106V18.0266C60.4943 15.4187 61.4481 12.8989 63.1873 10.9785C65.1907 8.8192 67.6226 7.73877 70.4832 7.73718C73.1333 7.73781 75.6746 8.80597 77.5487 10.7069C79.4227 12.6078 80.4761 15.1859 80.4774 17.8745V26.1013C80.4768 26.6013 80.2806 27.0806 79.9319 27.4339C79.5832 27.7872 79.1105 27.9857 78.6177 27.9857V27.9857C78.1251 27.9857 77.6527 27.7871 77.3043 27.4338C76.956 27.0804 76.7603 26.601 76.7603 26.1013V17.8793C76.7706 17.05 76.6155 16.2272 76.3044 15.4603C75.9932 14.6934 75.5325 13.9982 74.9498 13.4165C74.3658 12.8163 73.6705 12.3393 72.9039 12.013C72.1372 11.6867 71.3146 11.5176 70.4832 11.5155C69.6605 11.5026 68.8439 11.6608 68.0838 11.9804C67.3236 12.3 66.6361 12.7742 66.0635 13.3738C65.4731 13.9614 65.0065 14.6646 64.6921 15.4408C64.3776 16.2169 64.2219 17.0497 64.2343 17.8888V26.1155C64.2343 26.6153 64.0386 27.0946 63.6902 27.448C63.3419 27.8014 62.8695 27.9999 62.3769 27.9999C62.1322 27.9999 61.8899 27.9509 61.6639 27.8556C61.438 27.7603 61.2328 27.6206 61.0602 27.4447C60.8876 27.2687 60.751 27.0598 60.6582 26.8301C60.5654 26.6003 60.5183 26.3543 60.5195 26.106V26.106Z" fill="#2E2525"/>
<path d="M87.6845 7.74207C88.1771 7.74207 88.6496 7.94061 88.9979 8.29401C89.3462 8.6474 89.5419 9.12671 89.5419 9.62649V26.1062C89.5419 26.6059 89.3462 27.0852 88.9979 27.4386C88.6496 27.792 88.1771 27.9906 87.6845 27.9906C87.1919 27.9906 86.7195 27.792 86.3712 27.4386C86.0228 27.0852 85.8271 26.6059 85.8271 26.1062V9.62649C85.8271 9.12671 86.0228 8.6474 86.3712 8.29401C86.7195 7.94061 87.1919 7.74207 87.6845 7.74207V7.74207Z" fill="#2E2525"/>
<path d="M113.646 7.74198C113.957 7.74172 114.263 7.8212 114.536 7.97305C114.809 8.12489 115.039 8.34418 115.206 8.61058C115.373 8.87697 115.471 9.18185 115.491 9.49693C115.511 9.81202 115.452 10.1271 115.32 10.413L108.104 26.0966C107.542 27.3513 106.575 27.9794 105.204 27.981C104.587 28.0105 103.976 27.8463 103.455 27.5108C102.933 27.1753 102.526 26.6848 102.288 26.1061L95.0791 10.4225C94.9499 10.1342 94.8938 9.81783 94.9158 9.50199C94.9378 9.18616 95.0371 8.88091 95.2049 8.61393C95.3726 8.34694 95.6035 8.12669 95.8764 7.97318C96.1493 7.81966 96.4557 7.73775 96.7678 7.73486C97.1217 7.73652 97.468 7.83984 97.7664 8.03287C98.0649 8.22591 98.3033 8.50074 98.4542 8.82558L104.736 22.4703C104.777 22.5642 104.844 22.6438 104.929 22.6997C105.014 22.7557 105.114 22.7854 105.215 22.7854C105.316 22.7854 105.415 22.7557 105.5 22.6997C105.585 22.6438 105.653 22.5642 105.694 22.4703L111.978 8.81608C112.127 8.49289 112.365 8.21956 112.662 8.02809C112.959 7.83661 113.303 7.7349 113.655 7.73486L113.646 7.74198Z" fill="#2E2525"/>
<path d="M56.2729 17.8674C56.2727 15.5489 55.4882 13.3008 54.0503 11.4987C52.6125 9.69665 50.6085 8.44996 48.3734 7.96704C46.1383 7.48412 43.8076 7.79422 41.7708 8.84554C39.734 9.89685 38.1146 11.6256 37.1834 13.7429C36.2522 15.8602 36.0655 18.2376 36.6546 20.4777C37.2438 22.7179 38.5729 24.6849 40.42 26.0501C42.267 27.4153 44.52 28.0959 46.8023 27.978C49.0846 27.8602 51.2578 26.9511 52.9587 25.4027C53.2346 25.1435 53.4273 24.8061 53.5116 24.4343C53.596 24.0625 53.5682 23.6736 53.4317 23.3181C53.2953 22.9626 53.0566 22.6569 52.7467 22.4409C52.4368 22.2249 52.0699 22.1085 51.6939 22.1068C51.2224 22.1135 50.7694 22.2943 50.4197 22.6153C49.6399 23.311 48.7013 23.7982 47.6889 24.0328C46.6766 24.2675 45.6225 24.242 44.6223 23.9588C43.6221 23.6756 42.7074 23.1436 41.961 22.4111C41.2147 21.6785 40.6604 20.7686 40.3483 19.7637H54.4015C54.8976 19.7688 55.3755 19.574 55.7303 19.2221C56.0851 18.8702 56.2878 18.3898 56.294 17.8864L56.2729 17.8674ZM40.346 15.9664C40.7436 14.6795 41.5357 13.555 42.607 12.7566C43.6783 11.9582 44.9729 11.5277 46.3022 11.5277C47.6314 11.5277 48.926 11.9582 49.9973 12.7566C51.0686 13.555 51.8608 14.6795 52.2584 15.9664H40.346Z" fill="#2E2525"/>
<path d="M87.6845 4.98549C89.0414 4.98549 90.1415 3.86945 90.1415 2.49274C90.1415 1.11604 89.0414 0 87.6845 0C86.3276 0 85.2275 1.11604 85.2275 2.49274C85.2275 3.86945 86.3276 4.98549 87.6845 4.98549Z" fill="#2E2525"/>
</svg>
